<?xml version="1.0" encoding="UTF-8" standalone="no"?>
<!-- Created with Inkscape (http://www.inkscape.org/) -->

<svg
   xmlns:dc="http://purl.org/dc/elements/1.1/"
   xmlns:cc="http://creativecommons.org/ns#"
   xmlns:rdf="http://www.w3.org/1999/02/22-rdf-syntax-ns#"
   xmlns:svg="http://www.w3.org/2000/svg"
   xmlns="http://www.w3.org/2000/svg"
   xmlns:xlink="http://www.w3.org/1999/xlink"
   xmlns:sodipodi="http://sodipodi.sourceforge.net/DTD/sodipodi-0.dtd"
   xmlns:inkscape="http://www.inkscape.org/namespaces/inkscape"
   width="128"
   height="128"
   id="svg2"
   sodipodi:version="0.32"
   inkscape:version="0.48.2 r9819"
   version="1.0"
   sodipodi:docname="error-icon.svg"
   inkscape:output_extension="org.inkscape.output.svg.inkscape"
   inkscape:export-filename="/home/guy/Projects/Current/multitable/art/icons/error-icon.png"
   inkscape:export-xdpi="90"
   inkscape:export-ydpi="90">
  <defs
     id="defs4">
    <linearGradient
       id="linearGradient2338">
      <stop
         style="stop-color:#b1b1b1;stop-opacity:1;"
         offset="0"
         id="stop2340" />
      <stop
         style="stop-color:#e4e4e4;stop-opacity:1;"
         offset="1"
         id="stop2342" />
    </linearGradient>
    <linearGradient
       id="linearGradient2320">
      <stop
         style="stop-color:#6a3c1d;stop-opacity:1;"
         offset="0"
         id="stop2322" />
      <stop
         style="stop-color:#8f5127;stop-opacity:1;"
         offset="1"
         id="stop2324" />
    </linearGradient>
    <filter
       inkscape:collect="always"
       id="filter3087"
       x="-0.090850329"
       width="1.1817007"
       y="-0.10176855"
       height="1.2035371">
      <feGaussianBlur
         inkscape:collect="always"
         stdDeviation="2.0125721"
         id="feGaussianBlur3089" />
    </filter>
    <linearGradient
       inkscape:collect="always"
       xlink:href="#linearGradient2320"
       id="linearGradient2328"
       x1="46.702702"
       y1="61.924324"
       x2="83.718918"
       y2="30.097298"
       gradientUnits="userSpaceOnUse"
       gradientTransform="matrix(3.9131367,0,0,3.9131367,-250.53518,-331.59046)" />
    <linearGradient
       inkscape:collect="always"
       xlink:href="#linearGradient2320"
       id="linearGradient2336"
       x1="57.254055"
       y1="84.929733"
       x2="62.402176"
       y2="84.929733"
       gradientUnits="userSpaceOnUse"
       gradientTransform="matrix(3.9131367,0,0,3.9131367,-250.53518,-331.59046)" />
    <linearGradient
       inkscape:collect="always"
       xlink:href="#linearGradient2338"
       id="linearGradient2344"
       x1="61.75135"
       y1="104.82162"
       x2="67.793861"
       y2="100.46938"
       gradientUnits="userSpaceOnUse"
       gradientTransform="matrix(3.9131367,0,0,3.9131367,-250.53518,-331.59046)" />
    <linearGradient
       inkscape:collect="always"
       xlink:href="#linearGradient2338"
       id="linearGradient2346"
       x1="49.617195"
       y1="105.95181"
       x2="56.480152"
       y2="100.58965"
       gradientUnits="userSpaceOnUse"
       gradientTransform="matrix(3.9131367,0,0,3.9131367,-250.53518,-331.59046)" />
    <linearGradient
       inkscape:collect="always"
       xlink:href="#linearGradient2338"
       id="linearGradient2348"
       x1="62.137009"
       y1="97.656166"
       x2="65.363182"
       y2="94.888603"
       gradientUnits="userSpaceOnUse"
       gradientTransform="matrix(3.9131367,0,0,3.9131367,-250.53518,-331.59046)" />
    <linearGradient
       inkscape:collect="always"
       xlink:href="#linearGradient2320"
       id="linearGradient3839"
       gradientUnits="userSpaceOnUse"
       gradientTransform="matrix(3.9131367,0,0,3.9131367,-250.53518,-331.59046)"
       x1="57.254055"
       y1="84.929733"
       x2="62.402176"
       y2="84.929733" />
    <linearGradient
       inkscape:collect="always"
       xlink:href="#linearGradient2320"
       id="linearGradient3841"
       gradientUnits="userSpaceOnUse"
       gradientTransform="matrix(3.9131367,0,0,3.9131367,-250.53518,-331.59046)"
       x1="46.702702"
       y1="61.924324"
       x2="83.718918"
       y2="30.097298" />
    <linearGradient
       inkscape:collect="always"
       xlink:href="#linearGradient2338"
       id="linearGradient3843"
       gradientUnits="userSpaceOnUse"
       gradientTransform="matrix(3.9131367,0,0,3.9131367,-250.53518,-331.59046)"
       x1="49.617195"
       y1="105.95181"
       x2="56.480152"
       y2="100.58965" />
    <linearGradient
       inkscape:collect="always"
       xlink:href="#linearGradient2338"
       id="linearGradient3845"
       gradientUnits="userSpaceOnUse"
       gradientTransform="matrix(3.9131367,0,0,3.9131367,-250.53518,-331.59046)"
       x1="61.75135"
       y1="104.82162"
       x2="67.793861"
       y2="100.46938" />
    <linearGradient
       inkscape:collect="always"
       xlink:href="#linearGradient2338"
       id="linearGradient3847"
       gradientUnits="userSpaceOnUse"
       gradientTransform="matrix(3.9131367,0,0,3.9131367,-250.53518,-331.59046)"
       x1="62.137009"
       y1="97.656166"
       x2="65.363182"
       y2="94.888603" />
  </defs>
  <sodipodi:namedview
     id="base"
     pagecolor="#ffffff"
     bordercolor="#666666"
     borderopacity="1.0"
     gridtolerance="10000"
     guidetolerance="10"
     objecttolerance="10"
     inkscape:pageopacity="0.0"
     inkscape:pageshadow="2"
     inkscape:zoom="1.5613454"
     inkscape:cx="104.66595"
     inkscape:cy="42.875207"
     inkscape:document-units="px"
     inkscape:current-layer="layer1"
     showgrid="false"
     width="744.09px"
     inkscape:window-width="1248"
     inkscape:window-height="975"
     inkscape:window-x="426"
     inkscape:window-y="24"
     showguides="true"
     inkscape:guide-bbox="true"
     inkscape:window-maximized="0" />
  <metadata
     id="metadata7">
    <rdf:RDF>
      <cc:Work
         rdf:about="">
        <dc:format>image/svg+xml</dc:format>
        <dc:type
           rdf:resource="http://purl.org/dc/dcmitype/StillImage" />
        <dc:title></dc:title>
      </cc:Work>
    </rdf:RDF>
  </metadata>
  <g
     inkscape:groupmode="layer"
     id="layer2"
     inkscape:label="colors" />
  <g
     inkscape:label="outline"
     inkscape:groupmode="layer"
     id="layer1">
    <g
       id="g3824"
       transform="matrix(0.3224889,0,0,0.3224889,72.560714,89.649073)">
      <g
         id="g3808">
        <path
           style="fill:#000000;fill-opacity:0.62745098;fill-rule:evenodd;stroke:none;filter:url(#filter3087)"
           d="m 44.884459,60.922804 -0.918857,0.06394 -1.512607,0.06394 -0.111017,0.04796 -0.579768,0.04796 -0.578927,0.47958 -0.05784,0.01599 0.0047,0.01599 -0.203393,0.159859 0.896701,1.039088 -0.123469,3.756702 0.993202,1.262891 0.06991,0.23979 -9.263676,0.703382 -1.378285,0.09592 -9.429248,0.67141 -0.210803,-0.07993 0.0858,0.07993 -0.151589,0.01599 0.206143,0.06394 0.357198,0.367677 1.378364,1.726485 0.171914,0.911199 1.717681,0.639439 3.4375,0 1.091156,3.420997 -4.342069,0.863242 1.583516,4.252267 0.470126,0.111902 1.066626,0.335705 0.657625,0.111901 0.479447,0.143874 1.050278,2.637684 0.840464,0.09592 1.360484,0.271762 7.517267,-0.04796 6.50955,-1.039088 0.05127,0.175845 1.088483,5.019593 -0.507255,3.405011 1.599102,3.341067 1.576333,2.941418 1.184371,3.740724 1.107048,3.26113 1.953697,0.59148 1.434216,0.0959 0.628284,-0.0959 1.786752,0.44761 3.501683,0.86324 1.974786,0.12789 2.383481,-0.39965 3.012299,-0.81529 2.3125,0 0.350016,-0.94316 c 0,0 -2.432471,-1.94254 -3.3559,-2.07818 -0.810765,-0.1191 -4.460533,-0.89713 -5.446595,-1.10303 l 0.545233,0.048 -0.88547,-1.21494 -2.564181,-0.86324 -3.474252,-0.44761 0.445831,2.49381 2.773839,-0.23979 1.885698,0.14388 -4.594287,0.31971 -0.02659,0.016 -0.0014,-0.11191 -0.03729,-0.12789 -4.155729,-13.39624 -1.132033,-4.204308 -0.168935,-1.758456 -0.0233,-0.07993 16.707668,-2.717614 5.480288,0.575494 0.203314,-1.982259 -1.853684,-1.534652 -1.365985,-0.719369 1.674587,-0.687397 -0.351318,-3.88459 -2.26895,-0.815284 0.945981,-0.399649 -2.237015,-4.028463 -3.634321,-0.03197 -3.751376,-0.111901 -0.738769,-0.175847 -0.25,0 -0.232732,-0.04796 -1.420232,-0.04796 -0.456143,-0.06394 -0.206143,-0.06394 -0.15159,0.01599 -0.09841,-0.01599 -10.548212,0.799299 -0.08855,-0.303734 -2.182233,-5.019593 0.01452,-0.271762 0.0855,-0.67141 0.02055,-0.143874 -1.602537,-0.351691 z m 6.980633,40.556396 -3.565479,0.84726 -0.945901,2.22205 -2.351618,1.90233 -0.148533,0.99113 0.859949,0.59148 3.389517,-0.27176 4.885085,-1.35881 -2.12302,-4.92368 z"
           id="path2994"
           transform="matrix(3.9131367,0,0,4.4078198,-250.53518,-385.20677)"
           inkscape:connector-curvature="0" />
        <path
           style="fill:url(#linearGradient3839);fill-opacity:1;fill-rule:evenodd;stroke:none"
           d="m -25.715983,-265.47471 -4.150508,5.18814 2.421128,7.95514 -4.84226,28.70768 2.421132,9.68452 1.72938,128.319881 -1.383505,38.392198 -5.879887,25.940676 2.421132,25.5948022 2.767006,22.4819208 0.345874,28.707683 0.691753,24.903029 6.917514,4.49639 5.534009,0.691764 5.534012,-1.383489 3.8046335,-28.015946 -1.0376308,-103.41683 0.3458782,-32.166437 1.3835012,-13.489153 0.3458782,-124.861119 -2.7670063,-38.3922 1.7293795,-8.30102 -5.8798875,-2.76701 -12.451526,1.72938 z"
           id="path2377"
           inkscape:connector-curvature="0" />
        <path
           style="fill:url(#linearGradient3841);fill-opacity:1;fill-rule:evenodd;stroke:none"
           d="m 78.046721,-217.39799 -26.978303,-0.34587 -6.225761,-2.42113 -5.534013,-0.34588 -3.458755,-1.03762 -145.959539,21.09841 4.15051,16.25616 -0.34588,6.91751 6.917516,4.84226 12.451527,0 0.345874,26.28656 -17.985537,6.57163 1.3835,32.51232 7.263391,3.80463 3.112885,2.07525 0.345874,19.023166 8.301015,3.458759 29.399435,-0.345879 43.580337,-13.143275 72.979768,-22.136041 20.752542,4.49638 3.112881,-15.21853 -5.534009,-11.75977 -4.496386,-5.53401 7.263388,-5.18814 3.112881,-29.74531 -7.955141,-6.22576 4.150512,-3.11288 -4.150512,-30.78294 z"
           id="path2309"
           sodipodi:nodetypes="ccccccccccccccccccccccccccccc"
           inkscape:connector-curvature="0" />
        <path
           style="fill:url(#linearGradient3843);fill-opacity:1;fill-rule:evenodd;stroke:none"
           d="m -32.287623,43.046404 -14.195783,8.602241 -6.902633,14.917303 -11.413895,14.526777 -1.72938,7.60925 2.767007,4.49639 13.489149,-2.075254 20.752542,-10.376268 -2.767007,-37.700439 z"
           id="path2371"
           sodipodi:nodetypes="ccccccccc"
           inkscape:connector-curvature="0" />
        <path
           style="fill:url(#linearGradient3845);fill-opacity:1;fill-rule:evenodd;stroke:none"
           d="m 46.572036,79.363353 c 0,0 -7.263392,-14.872659 -10.722147,-15.910266 -3.458755,-1.037646 -22.481921,-9.338661 -22.481921,-9.338661 l -20.7525375,2.767006 -8.9927715,6.571655 -0.691749,11.759759 1.383501,8.992779 7.9551412,4.150507 12.7974009,6.571644 7.6092669,1.037607 9.684516,-3.112861 12.797401,-6.2258 8.992767,0 2.421132,-7.263369 z"
           id="path2373"
           inkscape:connector-curvature="0" />
        <path
           style="fill:url(#linearGradient3847);fill-opacity:1;fill-rule:evenodd;stroke:none"
           d="M 17.864354,55.497931 15.7891,46.159285 6.7963325,39.587649 -6.3469427,36.12889 -7.3845695,55.152053 3.6834519,53.422673 17.864354,55.497931 z"
           id="path2375"
           inkscape:connector-curvature="0" />
        <path
           style="fill:#000000;fill-opacity:0.15686275;fill-rule:evenodd;stroke:none"
           d="m -110.76283,-201.47867 5.13599,14.91883 -0.73371,9.2937 5.99199,4.89142 14.185122,0 0,25.55768 4.035422,0.97828 3.301709,3.54628 20.299397,-6.23656 -22.13368,1.34514 1.345141,-25.55767 -5.869705,0.36685 -12.83998,-1.10057 -4.769136,-21.76682 -7.94856,-6.23656 z m 31.916523,59.18619 -15.407975,4.76914 15.652546,-4.52457 -0.244571,-0.24457 z m 155.547183,-40.84336 -13.206836,4.52456 20.788538,0.97829 -7.581702,-5.50285 z m -3.790851,40.10965 -14.18512,7.21484 c 0,0 20.016465,-0.97829 21.399966,-0.97828 l -7.214846,-6.23656 z m -177.191725,3.79085 1.46743,32.16109 5.135993,3.424 4.157708,1.46742 1.100569,20.666256 9.2937,2.078854 -5.135992,-20.054826 21.399966,-10.638844 -28.003384,5.86971 0.366857,-33.26166 -9.782847,-1.712 z"
           id="path2978"
           inkscape:connector-curvature="0" />
        <path
           style="fill:#ffffff;fill-opacity:0.1254902;fill-rule:evenodd;stroke:none"
           d="m -13.668124,-266.90142 -9.2937,0.73371 -5.869705,4.52456 2.078854,5.86971 7.214846,3.79085 6.603418,-1.712 4.1577079,-4.52456 1.1005697,-5.13599 -5.9919906,-3.54628 z m 50.50392,45.36792 -14.18512,2.07886 -89.513002,12.71769 -44.267354,5.99199 7.21484,4.76914 49.158781,-5.50285 c 0,0 88.929741,-16.26397 93.426138,-16.26397 4.496382,0 11.005701,3.05714 11.005697,3.05713 l 27.0251,-2.07885 -27.391957,-1.712 -2.690281,-1.34514 -7.703988,-0.36686 -2.078854,-1.34514 z m -118.983812,75.32789 -6.847989,1.46742 -14.918835,5.13599 7.581704,2.07886 17.364544,-5.13599 -3.179424,-3.54628 z"
           id="path2987"
           inkscape:connector-curvature="0" />
        <path
           id="path2985"
           d="m -32.287623,43.046404 -14.87265,6.57164 -6.225766,16.947904 -11.413895,14.526777 -1.72938,7.60925 2.767007,4.49639 13.489149,-2.075254 20.752542,-10.376268 -2.767007,-37.700439 z"
           style="fill:#000000;fill-opacity:0.15686275;fill-rule:evenodd;stroke:none"
           inkscape:connector-curvature="0" />
        <path
           style="fill:#000000;fill-opacity:1;fill-rule:evenodd;stroke:none"
           d="m -16.220799,-269.58027 c -6.36297,0.32767 -12.84604,3.3419 -11.61712,9.17141 l -4.89142,37.78623 1.95656,8.4377 -78.874161,11.73941 c 1.87101,7.90045 5.3692,15.47546 4.27999,23.96796 l 7.092571,5.8697 11.73941,-0.24457 0.73371,25.19082 -18.342831,6.23656 c -0.1911,12.55497 1.65525,19.23862 1.46742,31.79424 1.47196,4.21365 3.609741,5.06432 7.459431,5.99198 l 1.95656,-0.48914 1.83429,21.399966 7.45941,3.54628 31.54967,-0.978284 23.11196,-6.970274 -0.24457,38.642224 c -5.79388,23.804585 -6.6739,47.61015976 -0.73371,71.414745 l 0,17.486829 c -5.12566,0.754821 -10.01431,4.557028 -14.42969,7.214846 -4.03893,6.310269 -5.37359,13.121647 -10.02742,19.198827 -7.6623,8.022399 -17.65113,20.227238 -6.60342,25.557674 10.38745,-0.154921 23.38944,-6.207996 31.79424,-11.73941 5.08044,2.916421 10.28963,5.113843 16.14169,3.790851 8.2895199,6.793009 18.4499999,9.675894 29.10395,10.883414 9.4181,-0.18325 16.09435,-7.784601 25.19082,-8.80456 7.24554,1.727493 6.46464,-2.412488 7.5817,-9.538271 C 41.920381,62.746335 33.862161,57.455383 20.342571,53.008925 21.666541,38.85428 8.5322109,35.049071 -3.8699591,34.29924 l -1.83428,-112.74725 c 0.41203,-4.957009 2.01,-11.66508 2.20114,-16.508546 l 68.3576001,-20.666244 19.56569,5.25827 2.93485,-17.85368 -4.89142,-11.8617 -5.01371,-3.54628 7.82627,-2.93485 2.32343,-33.13938 -5.62513,-4.27999 4.40227,-1.22285 -6.48113,-34.36224 -0.73371,0 -0.12229,0 -27.8811,-0.61142 -3.79085,-1.58972 -5.25827,-0.24457 -3.17943,-1.58971 -11.61712,0.856 -30.6936701,4.52456 -1.712,-44.63421 c 1.47789,-4.69449 -4.765,-7.05338 -11.1279799,-6.7257 z m 1.22286,2.32342 c 5.2351599,0.14826 9.6070899,2.79963 5.9919899,8.68227 l 2.56799,41.21022 -20.0548199,2.568 -2.568,-4.76914 5.13599,-37.41937 c -5.92965,-6.51716 2.19593,-10.4626 8.92685,-10.27198 z m 5.2582699,10.1497 c -4.1498199,1.63315 -8.4524099,4.79403 -11.9839799,0.24457 l -0.73371,1.46743 c 4.79577,8.35208 7.54949,3.38978 11.73941,0.73371 z m 47.9359301,35.4628 0.97828,0.856 c -1.79172,0.3203 -34.8723401,6.1961 -68.84675,12.35084 l -73.738171,10.14969 c 3.10116,7.09217 4.592851,14.82539 5.013711,22.98968 l -4.769141,-3.79085 c 1.52087,-10.08085 -2.40885,-14.71112 -3.79085,-21.88911 l 134.269511,-19.93254 z m 1.95657,0.24457 7.09256,0.97829 3.42399,1.22285 19.4434,0.24457 -18.70969,1.22286 -10.39426,-3.424 c 0,0 -0.72608,0.12092 -0.73372,0.12229 z m 0.61142,2.69028 8.43771,3.424 -16.26398,5.62513 9.78284,2.568 -113.23639,32.28337 0,0.12229 -25.43539,-0.24457 c -0.47351,-7.38571 -1.34947,-14.57019 -4.402281,-20.66625 23.697831,-3.06429 48.886811,-6.25097 72.393031,-10.51656 34.5287699,-6.25516 68.01019,-12.46173 68.72446,-12.59541 z m 38.15309,1.58971 2.93485,29.10396 -18.34283,6.97027 0,0.48915 -120.94038,29.59309 0.48914,1.22286 120.45124,-30.20453 0,0.61143 22.62282,0.97828 -4.52456,29.5931 -23.23425,11.25027 -122.77466,24.94625 -0.12229,-0.24458 -27.51424,5.99199 -0.48914,-31.42737 35.4628,-10.39427 -0.36686,-2.32343 -0.12228,-0.36686 -19.68797,2.07886 -0.856,-22.62282 9.90513,-2.81257 -0.73372,0 113.72554,-32.52795 -10.1497,-2.32342 16.63083,-5.62514 z m 0.73371,33.87309 4.40228,3.424 -15.28569,-0.73371 z m -160.56089,10.27199 -0.12228,25.19082 -2.568,-0.36686 -0.97828,-24.70168 z m 21.03311,23.72339 -36.07423,9.04913 0.61143,33.38394 c -1.97277,-0.37362 -3.86262,-2.53034 -5.380571,-3.3017 0,-2.76177 -0.29928,-28.81787 -0.24457,-31.3051 l 19.932551,-6.11427 0,1.22285 z m 135.49236,6.23656 3.17942,3.17942 -14.79655,1.22286 z m -16.99769,6.11428 0.24457,0.73371 20.66625,0 6.72571,9.2937 -3.30171,14.30741 -19.68797,-4.52457 -116.29353,34.239941 -27.51424,0 -3.79085,-18.098261 20.66625,-10.27197 -0.24457,-0.36686 z m -126.6878,26.41367 -18.83197,7.82626 -4.76913,-1.58971 z m -21.64454,7.82626 2.93486,2.44572 2.32342,17.975968 -4.89142,-1.222855 z m 82.2981599,8.926849 c -0.14815,4.552368 -0.32515,9.123068 -0.856,13.94055 l 0.48914,132.557505 c -8.8352799,4.576444 -12.1484299,14.450509 -7.8262699,28.614812 -4.24133,1.844535 -7.28056,-0.768853 -11.25027,-5.502849 l 0.48914,-51.482204 c -6.29497,-24.29507314 -6.02548,-48.097964 -0.61142,-72.393029 l 1.58971,-40.354222 z m 3.54628,129.500367 c 4.23768,-0.195766 8.51113,1.124745 12.22855,3.423995 l -5.38056,6.481133 1.46743,0.978284 6.9702701,-5.135992 c 3.45278,2.957048 6.10348,6.748881 6.97027,10.883411 -2.60675,-0.811353 -5.36857,-1.607825 -8.07084,-2.323425 -5.3987701,-0.530292 -10.1902101,-0.08713 -14.1851201,1.10057 z m -26.4136699,7.459417 -0.48915,33.383947 c -2.81346,2.206501 -7.90066,5.198563 -13.32912,7.826274 1.00535,-6.147499 1.4,-13.211728 6.11428,-19.565684 l -0.48914,-0.244571 c -6.40532,6.683012 -9.94745,13.889288 -9.78284,21.766823 -4.69825,1.969286 -9.36369,3.409007 -12.83998,3.423995 -7.61943,-3.875454 1.83819,-14.674732 6.35884,-19.810255 6.36231,-4.532899 7.44012,-12.848138 10.27199,-19.687969 3.5319,-2.259425 10.11093,-5.236551 14.18512,-7.09256 z m 40.35422,10.761126 c 2.13949,0.375657 4.29593,0.800369 6.48113,1.345141 l 3.30171,15.407975 -8.80456,7.459417 0.856,8.682272 0.48914,-0.244571 0.36686,-7.337131 7.5817,-6.970275 7.70399,7.459417 6.11428,0.855999 -0.24457,-0.733714 -4.76914,-2.201139 -7.09256,-6.847989 -0.24457,-13.94055 c 10.52337,3.434717 20.27947,9.327862 24.21253,19.687969 -0.73263,4.58874 -0.0116,6.198878 -4.15771,5.991991 -9.42654,0.173352 -16.73002,6.729265 -25.43538,9.538271 -17.2600701,-1.92409 -24.4619201,-7.438756 -29.10396,-9.905128 -6.81576,-18.743024 5.9718399,-28.208511 22.74511,-28.247955 z"
           id="path2316"
           inkscape:connector-curvature="0"
           sodipodi:nodetypes="sccccccccccccccccccccccccccccccccccccccccccccccccccsscccccsccccccccccccccccccccccccccccccccccccccccccccccccccccccccccccccccccccccccccccccccccccccccccccccccccccccccccccccccccccccccccccccccccccccccccccccccccc" />
      </g>
      <text
         transform="matrix(0.96796257,-0.19590776,0.23442251,0.98565259,0,0)"
         sodipodi:linespacing="125%"
         id="text3820"
         y="-142.65535"
         x="-25.751188"
         style="font-size:44.23875809px;font-style:normal;font-variant:normal;font-weight:bold;font-stretch:normal;text-align:start;line-height:125%;letter-spacing:0px;word-spacing:0px;writing-mode:lr-tb;text-anchor:start;fill:#ffffff;fill-opacity:1;stroke:none;font-family:Sans;-inkscape-font-specification:Sans Bold"
         xml:space="preserve"><tspan
           y="-142.65535"
           x="-25.751188"
           id="tspan3822"
           sodipodi:role="line">Oops</tspan></text>
    </g>
  </g>
</svg>
